<?xml version="1.0" encoding="UTF-8"?>
<svg width="24px" height="24px" viewBox="0 0 24 24" version="1.1" xmlns="http://www.w3.org/2000/svg">
    <path d="M12,2 C17.5228475,2 22,6.4771525 22,12 C22,17.5228475 17.5228475,22 12,22 C6.4771525,22 2,17.5228475 2,12 C2,6.4771525 6.4771525,2 12,2 Z M13.5,7 L9,7 L9,17 L11,17 L11,13 L13.5,13 C15.7091489,13 17.5,11.2091489 17.5,9 C17.5,7.89543051 16.6045695,7 15.5,7 L13.5,7 Z M13.5,11 L11,11 L11,9 L13.5,9 C14.3284271,9 15,9.67157288 15,10.5 C15,10.7761424 14.7761424,11 14.5,11 L13.5,11 Z" fill="#FFD700"/>
</svg>